# xmcd
#
# Track frame offsets:
#  150
#  7755
#  19218
#  27466
#  53143
#  63947
#  83075
#  86744
#  106259
#  127852
#  149113
#  178095
#  208494
#  220482
#  235970
#
# Disc length: 3587 seconds
#
# Revision: 1
# Processed by: cddbd v1.5.1PL2 Copyright (c) Steve Scherf et al.
# Submitted via: Collectorz.com_Music_Collector 6.11
#
DISCID=d60e010f
DTITLE=Tom Russell and Andrew Hardin - Sweden - 10/09/2005 [CD2)
DYEAR=2005
DGENRE=Country
TTITLE0=Intro
TTITLE1=The Rose Of The San Joaquin
TTITLE2=Tierra Del Sol (?)
TTITLE3=Touch Of Evil
TTITLE4=The Eyes Of Roberto Duran
TTITLE5=Hurricane Season
TTITLE6=Happy Birthday
TTITLE7=Jimmy Martin Is Dead (?)
TTITLE8=Blue Wing
TTITLE9=Sonora Death Row
TTITLE10=Muhammad Ali
TTITLE11=Haley's Comet/Who Do You Love/Haley's Comet
TTITLE12=Charles Bukowski Poem
TTITLE13=Snowin' On Raton
TTITLE14=Big River > Cocaine Blues > The Auctioneer
EXTD=
EXTT0=
EXTT1=
EXTT2=
EXTT3=
EXTT4=
EXTT5=
EXTT6=
EXTT7=
EXTT8=
EXTT9=
EXTT10=
EXTT11=
EXTT12=
EXTT13=
EXTT14=
PLAYORDER=
